<svg width="446" height="299" viewBox="0 0 446 299" fill="none" xmlns="http://www.w3.org/2000/svg">
<path d="M357.565 232.199C354.992 226.556 349.521 223.735 344.379 221.061C335.253 216.317 327.227 209.514 318.368 204.242C291.515 188.264 264.042 175.184 235.958 161.967C226.098 157.327 216.315 156.04 205.879 154.594C203.475 154.261 192.96 157.163 194.478 160.494C195.527 162.795 197.135 163.802 199.059 165.293C205.914 170.606 213.681 174.058 220.343 179.909C231.026 189.292 242.049 197.836 253.886 205.524C276.224 220.032 299.284 234.666 324.392 242.823C332.836 245.567 352.277 254.525 359.74 244.843C361.112 243.063 362.735 239.298 362.227 237.032C361.25 232.677 363.92 230.373 365.782 227.189C371.149 218.006 373.401 210.478 363.757 203.793C328.708 179.503 301.122 145.428 258.703 134.59C244.012 130.837 227.792 127.17 212.688 128.999C207.988 129.568 204.011 132.937 201.751 136.937C199.907 140.199 197.397 147.005 197.511 150.818C197.657 155.701 197.682 154.63 201.739 151.491C204.057 149.698 206.875 148.619 209.186 146.831C211.824 144.789 207.185 142.612 210.716 141.003C225.524 134.252 243.87 139.196 259.339 143.859C280.021 150.093 297.534 162.686 316.507 173.041C325.57 177.987 334.201 183.699 343.161 188.793C347.782 191.421 353.097 193.649 357.291 196.901C359.154 198.344 371.493 206.501 372.503 201.985C373.297 198.433 378.471 193.872 380.666 191.025C384.169 186.48 386.944 181.215 390.083 176.4C397.35 165.252 403.455 152.906 410.661 141.646C413.117 137.81 414.562 135.713 409.296 133.694C402.541 131.105 397.77 126.914 391.848 122.39C384.004 116.4 377.406 108.87 369.623 102.651C358.302 93.6045 345.311 88.0804 333.44 80.1377C321.263 71.9901 308.76 67.5398 296.119 60.8141C288.218 56.6102 281.192 52.1307 272.569 49.8316C266.762 48.283 259.821 45.4898 253.877 45.4206C247.253 45.3434 252.279 45.9088 249.527 51.4797C242.655 65.3931 231.853 77.4345 221.993 89.0528C216.131 95.96 205.463 108.653 207.77 118.941C208.608 122.679 207.954 124.98 209.903 128.722C211.049 130.922 217.391 126.362 218.616 125.383C230.409 115.956 241.311 104.077 250.9 92.2514C254.56 87.7373 259.18 80.5001 264.257 77.3768C267.658 75.2848 266.673 74.4787 271.21 76.7375C283.864 83.0374 296.743 88.9129 309.389 95.3186C323.491 102.462 339.452 109.368 352.591 118.357C355.221 120.157 365.934 124.974 366.553 128.72C366.681 129.497 358.46 134.234 357.446 134.84C350.849 138.781 345.738 152.032 345.019 159.481C344.161 168.359 338.403 178.456 339.491 187.304" stroke="#271F2B" stroke-width="3" stroke-linecap="round"/>
<path d="M235.52 186.449C219.888 186.449 206.561 196.696 190.8 196.977C168.526 197.374 147.26 191.371 124.989 191.713C108.477 191.967 99.6694 201.004 89.2517 211.404C73.6101 227.019 46.7392 229.683 27.8346 240.063C23.9736 242.183 -9.81407 267.46 6.35326 272.426C22.8201 277.484 40.9773 261.449 57.9085 260.241C69.7918 259.394 69.2095 265.288 71.2855 275.058C73.4962 285.463 81.0758 292.909 91.4975 295.139C102.034 297.393 111.876 296.592 122.157 293.482C135.706 289.383 147.179 290.044 161.117 292.702C177.046 295.74 192.539 297.119 208.766 296.991C217.912 296.919 236.727 296.749 243.136 288.218C250.83 277.977 236.017 268.917 253.486 268.917C270.736 268.917 293.828 272.496 307.58 259.364C312.169 254.982 313.555 247.304 312.853 241.233C312.256 236.066 300.779 234.718 297.035 232.849C287.849 228.264 294.967 223.417 301.331 219.787C305.844 217.213 297.495 213.472 296.156 212.769C290.482 209.787 283.276 211.014 277.018 211.014C266.88 211.014 246.464 211.628 238.352 204.775C231.702 199.158 240.627 188.204 230.247 188.204" stroke="#271F2B" stroke-width="3" stroke-linecap="round"/>
</svg>
