<svg width="28" height="26" viewBox="0 0 28 26" fill="none" xmlns="http://www.w3.org/2000/svg">
<path d="M19.3783 0.548908C16.7259 0.852383 15.4202 2.21916 13.8479 3.88713C11.9451 2.01152 10.4822 0.608234 7.28283 0.564881C7.14382 0.562599 7.01166 0.564881 6.88633 0.569444C5.05423 0.635615 3.35201 1.32014 2.09871 2.49069C0.834016 3.67264 0.0273448 5.3429 0 7.36454C0 7.49688 0 7.62466 0.00455746 7.74787C0.184362 12.78 4.63337 16.8446 8.3246 20.217L8.33788 20.2291C9.01922 20.852 9.6755 21.4522 10.2429 21.9975L13.342 24.9866L13.8752 25.5L14.4016 24.9775L18.1524 21.2514C18.6491 20.7585 19.2393 20.1926 19.8705 19.5879C20.9507 18.552 22.1493 17.402 23.2772 16.2315C24.0999 15.3804 24.8837 14.5179 25.556 13.6827C26.2419 12.8316 26.8161 12.0011 27.2035 11.2276C27.8894 9.85851 28.1036 8.4826 27.9555 7.19112C27.8096 5.9179 27.3106 4.73366 26.5655 3.72512C25.8271 2.72799 24.8427 1.90199 23.7148 1.33612C22.409 0.678969 20.9096 0.373212 19.3783 0.548908Z" fill="#E2BBFB"/>
</svg>
